# xmcd CD database file
#
# Track frame offsets:
#	150
#	4822
#	15957
#	21027
#	33915
#	35230
#	52590
#	53505
#	70117
#	74412
#	92255
#	105137
#	108330
#	126925
#	129635
#	149152
#	165347
#	175892
#
# Disc length: 2735 seconds
#
# Revision: 0
# Processed by: cddbd v1.5.2PL0 Copyright (c) Steve Scherf et al.
# Submitted via: CDex 1.70beta2
#
DISCID=dd0aad12
DTITLE=Ricky Skaggs - Live in London
DYEAR=1985
DGENRE=Country
TTITLE0=Introduction
TTITLE1=Uncle Pen
TTITLE2=Dialogue
TTITLE3=Heartbroke
TTITLE4=Dialogue
TTITLE5=She didn't say why
TTITLE6=Dialogue
TTITLE7=Cajun moon
TTITLE8=Dialogue
TTITLE9=Country boy
TTITLE10=I've got a new heartache
TTITLE11=Dialogue
TTITLE12=You make me feel like a man
TTITLE13=Dialogue
TTITLE14=Rock'in the boat
TTITLE15=Honey (open that door)
TTITLE16=Dialogue
TTITLE17=Don't get above your raising
EXTD=YEAR: 1985
EXTT0=
EXTT1=
EXTT2=
EXTT3=
EXTT4=
EXTT5=
EXTT6=
EXTT7=
EXTT8=
EXTT9=
EXTT10=
EXTT11=
EXTT12=
EXTT13=
EXTT14=
EXTT15=
EXTT16=
EXTT17=
PLAYORDER=
